<mxfile host="app.diagrams.net" modified="2023-10-09T11:36:06.866Z" agent="Mozilla/5.0 (X11; Ubuntu; Linux x86_64; rv:109.0) Gecko/20100101 Firefox/118.0" version="22.0.4" etag="tsnrctTMQyJsbfmqYTlF" type="github">
  <diagram name="Page-1" id="g-5Uz-JgoU5N8zOT3_Hz">
    <mxGraphModel>
      <root>
        <mxCell id="0" />
        <mxCell id="1" parent="0" />
      </root>
    </mxGraphModel>
  </diagram>
</mxfile>
